<?xml version="1.0" encoding="UTF-8" standalone="no"?>
<!DOCTYPE svg PUBLIC "-//W3C//DTD SVG 1.1//EN" "http://www.w3.org/Graphics/SVG/1.1/DTD/svg11.dtd">
<svg width="100%" height="100%" viewBox="0 0 2560 1440" version="1.1" xmlns="http://www.w3.org/2000/svg" xmlns:xlink="http://www.w3.org/1999/xlink" xml:space="preserve" xmlns:serif="http://www.serif.com/" style="fill-rule:evenodd;clip-rule:evenodd;stroke-linecap:round;stroke-linejoin:round;stroke-miterlimit:1.5;">
    <rect x="-686.268" y="-193.968" width="3720.93" height="1908.64" style="fill:rgb(140,209,204);stroke:black;stroke-opacity:0;stroke-width:19.18px;"/>
    <g>
        <path d="M832.531,63.819L863.4,82.232" style="fill:none;stroke:black;stroke-width:19.18px;"/>
        <g transform="matrix(0.594435,-0.804144,0.804144,0.594435,1171.31,772.128)">
            <path d="M832.531,63.819L863.4,82.232" style="fill:none;stroke:black;stroke-width:19.18px;"/>
        </g>
        <g transform="matrix(0.586246,-0.810133,0.810133,0.586246,655.609,851.976)">
            <path d="M832.531,63.819L863.4,82.232" style="fill:none;stroke:black;stroke-width:19.18px;"/>
        </g>
        <g transform="matrix(0.595968,-0.803008,0.803008,0.595968,1625.63,1049.68)">
            <path d="M832.531,63.819L863.4,82.232" style="fill:none;stroke:black;stroke-width:19.18px;"/>
        </g>
        <g transform="matrix(0.999702,-0.0244102,0.0244102,0.999702,835.753,439.956)">
            <path d="M832.531,63.819L863.4,82.232" style="fill:none;stroke:black;stroke-width:19.18px;"/>
        </g>
        <g transform="matrix(0.579798,-0.81476,0.81476,0.579798,-489.936,1494.24)">
            <path d="M832.531,63.819L863.4,82.232" style="fill:none;stroke:black;stroke-width:19.18px;"/>
        </g>
        <g transform="matrix(0.999977,0.00677103,-0.00677103,0.999977,1522.14,712.988)">
            <path d="M832.531,63.819L863.4,82.232" style="fill:none;stroke:black;stroke-width:19.18px;"/>
        </g>
        <g transform="matrix(0.9998,-0.020012,0.020012,0.9998,-401.554,1235.23)">
            <path d="M832.531,63.819L863.4,82.232" style="fill:none;stroke:black;stroke-width:19.18px;"/>
        </g>
        <g transform="matrix(0.583721,-0.811954,0.811954,0.583721,1033.64,1893.91)">
            <path d="M832.531,63.819L863.4,82.232" style="fill:none;stroke:black;stroke-width:19.18px;"/>
        </g>
        <g transform="matrix(0.607737,-0.794139,0.794139,0.607737,1866.73,692.577)">
            <path d="M832.531,63.819L863.4,82.232" style="fill:none;stroke:black;stroke-width:19.18px;"/>
        </g>
        <g transform="matrix(0.999625,0.0273691,-0.0273691,0.999625,109.109,1184.97)">
            <path d="M832.531,63.819L863.4,82.232" style="fill:none;stroke:black;stroke-width:19.18px;"/>
        </g>
        <g transform="matrix(0.579798,-0.81476,0.81476,0.579798,340.306,1370.29)">
            <path d="M832.531,63.819L863.4,82.232" style="fill:none;stroke:black;stroke-width:19.18px;"/>
        </g>
        <g transform="matrix(0.99999,-0.00441641,0.00441641,0.99999,-464.184,244.46)">
            <path d="M832.531,63.819L863.4,82.232" style="fill:none;stroke:black;stroke-width:19.18px;"/>
        </g>
    </g>
    <g>
        <g transform="matrix(0.930177,-0.36711,0.36711,0.930177,1324.78,-92.9682)">
            <path d="M86.12,104.547C86.12,104.547 71.359,114.842 72.084,129.531C74.067,154.983 98.351,163.03 102.978,183.855C106.945,208.315 98.681,215.281 98.681,215.281" style="fill:white;fill-opacity:0;stroke:white;stroke-width:8.49px;"/>
        </g>
        <path d="M86.12,104.547C86.12,104.547 71.359,114.842 72.084,129.531C74.067,154.983 98.351,163.03 102.978,183.855C106.945,208.315 98.681,215.281 98.681,215.281" style="fill:white;fill-opacity:0;stroke:white;stroke-width:8.49px;"/>
        <g transform="matrix(0.92988,-0.367864,0.367864,0.92988,490.667,482.267)">
            <path d="M86.12,104.547C86.12,104.547 71.359,114.842 72.084,129.531C74.067,154.983 98.351,163.03 102.978,183.855C106.945,208.315 98.681,215.281 98.681,215.281" style="fill:white;fill-opacity:0;stroke:white;stroke-width:8.49px;"/>
        </g>
        <g transform="matrix(0.999997,0.00248494,-0.00248494,0.999997,1923.14,-119.391)">
            <path d="M86.12,104.547C86.12,104.547 71.359,114.842 72.084,129.531C74.067,154.983 98.351,163.03 102.978,183.855C106.945,208.315 98.681,215.281 98.681,215.281" style="fill:white;fill-opacity:0;stroke:white;stroke-width:8.49px;"/>
        </g>
        <g transform="matrix(0.642697,0.76612,-0.76612,0.642697,421.037,804.459)">
            <path d="M86.12,104.547C86.12,104.547 71.359,114.842 72.084,129.531C74.067,154.983 98.351,163.03 102.978,183.855C106.945,208.315 98.681,215.281 98.681,215.281" style="fill:white;fill-opacity:0;stroke:white;stroke-width:8.49px;"/>
        </g>
        <g transform="matrix(1,-0.000756028,0.000756028,1,925.7,704.795)">
            <path d="M86.12,104.547C86.12,104.547 71.359,114.842 72.084,129.531C74.067,154.983 98.351,163.03 102.978,183.855C106.945,208.315 98.681,215.281 98.681,215.281" style="fill:white;fill-opacity:0;stroke:white;stroke-width:8.49px;"/>
        </g>
        <g transform="matrix(0.92988,-0.367864,0.367864,0.92988,1196.46,465.259)">
            <path d="M86.12,104.547C86.12,104.547 71.359,114.842 72.084,129.531C74.067,154.983 98.351,163.03 102.978,183.855C106.945,208.315 98.681,215.281 98.681,215.281" style="fill:white;fill-opacity:0;stroke:white;stroke-width:8.49px;"/>
        </g>
        <g transform="matrix(0.999915,0.0130706,-0.0130706,0.999915,626.473,1205.37)">
            <path d="M86.12,104.547C86.12,104.547 71.359,114.842 72.084,129.531C74.067,154.983 98.351,163.03 102.978,183.855C106.945,208.315 98.681,215.281 98.681,215.281" style="fill:white;fill-opacity:0;stroke:white;stroke-width:8.49px;"/>
        </g>
        <g transform="matrix(0.999876,0.0157589,-0.0157589,0.999876,1740.04,638.214)">
            <path d="M86.12,104.547C86.12,104.547 71.359,114.842 72.084,129.531C74.067,154.983 98.351,163.03 102.978,183.855C106.945,208.315 98.681,215.281 98.681,215.281" style="fill:white;fill-opacity:0;stroke:white;stroke-width:8.49px;"/>
        </g>
        <g transform="matrix(1,0.000466701,-0.000466701,1,1276.93,1250.33)">
            <path d="M86.12,104.547C86.12,104.547 71.359,114.842 72.084,129.531C74.067,154.983 98.351,163.03 102.978,183.855C106.945,208.315 98.681,215.281 98.681,215.281" style="fill:white;fill-opacity:0;stroke:white;stroke-width:8.49px;"/>
        </g>
        <g transform="matrix(0.931575,-0.363549,0.363549,0.931575,1531.85,944.631)">
            <path d="M86.12,104.547C86.12,104.547 71.359,114.842 72.084,129.531C74.067,154.983 98.351,163.03 102.978,183.855C106.945,208.315 98.681,215.281 98.681,215.281" style="fill:white;fill-opacity:0;stroke:white;stroke-width:8.49px;"/>
        </g>
        <g transform="matrix(0.811771,0.583976,-0.583976,0.811771,2115.7,1170.4)">
            <path d="M86.12,104.547C86.12,104.547 71.359,114.842 72.084,129.531C74.067,154.983 98.351,163.03 102.978,183.855C106.945,208.315 98.681,215.281 98.681,215.281" style="fill:white;fill-opacity:0;stroke:white;stroke-width:8.49px;"/>
        </g>
        <g transform="matrix(0.95302,-0.302908,0.302908,0.95302,526.451,-122.671)">
            <path d="M86.12,104.547C86.12,104.547 71.359,114.842 72.084,129.531C74.067,154.983 98.351,163.03 102.978,183.855C106.945,208.315 98.681,215.281 98.681,215.281" style="fill:white;fill-opacity:0;stroke:white;stroke-width:8.49px;"/>
        </g>
        <g transform="matrix(0.999914,0.0131242,-0.0131242,0.999914,2151.19,831.749)">
            <path d="M86.12,104.547C86.12,104.547 71.359,114.842 72.084,129.531C74.067,154.983 98.351,163.03 102.978,183.855C106.945,208.315 98.681,215.281 98.681,215.281" style="fill:white;fill-opacity:0;stroke:white;stroke-width:8.49px;"/>
        </g>
        <g transform="matrix(0.930177,-0.36711,0.36711,0.930177,2197.62,160.807)">
            <path d="M86.12,104.547C86.12,104.547 71.359,114.842 72.084,129.531C74.067,154.983 98.351,163.03 102.978,183.855C106.945,208.315 98.681,215.281 98.681,215.281" style="fill:white;fill-opacity:0;stroke:white;stroke-width:8.49px;"/>
        </g>
    </g>
    <g>
        <g>
            <path d="M623.587,380.082L715.824,482.05C715.824,482.05 754.326,453.068 760.673,388.756C764.481,325.291 725.555,288.031 725.555,288.031C711.593,300.936 623.587,380.082 623.587,380.082Z" style="fill:rgb(207,82,158);stroke:black;stroke-opacity:0;stroke-width:1px;"/>
            <path d="M702.602,467.097L716.141,482.05C716.141,482.05 760.626,444.249 761.358,387.384C762.09,330.519 737.465,296.553 725.449,288.031C720.203,293.387 718.51,294.155 711.91,300.372C726.803,319.958 740.918,369.681 740.071,385.759C739.225,401.837 720.372,454.789 702.602,467.097Z" style="fill:rgb(3,103,93);stroke:black;stroke-opacity:0;stroke-width:1px;"/>
            <path d="M711.91,300.372C707.632,303.256 705.309,306.126 705.309,306.126C721.895,323.05 737.709,362.856 734.358,389.616C731.397,411.57 727.514,432.952 699.217,463.52C704.294,469.276 705.309,470.8 705.309,470.8C705.309,470.8 741.155,437.059 743.693,390.413C745.386,340.383 722.741,311.011 711.91,300.372Z" style="fill:white;stroke:black;stroke-opacity:0;stroke-width:1px;"/>
            <g transform="matrix(0.887511,-0.460786,0.460786,0.887511,-590.561,410.68)">
                <path d="M1124.43,583.817C1122.18,587.153 1122.95,594.395 1124.85,600.741C1126.76,607.088 1129.38,610.802 1132.82,611.904C1135.02,609.748 1135.22,604.972 1133.31,597.356C1131.41,589.74 1126.68,583.323 1124.43,583.817Z" style="stroke:black;stroke-width:1px;"/>
            </g>
            <g transform="matrix(-0.432224,-0.901766,0.901766,-0.432224,633.83,1635.84)">
                <path d="M1124.43,583.817C1122.18,587.153 1122.95,594.395 1124.85,600.741C1126.76,607.088 1129.38,610.802 1132.82,611.904C1135.02,609.748 1135.22,604.972 1133.31,597.356C1131.41,589.74 1126.68,583.323 1124.43,583.817Z" style="stroke:black;stroke-width:1px;"/>
            </g>
        </g>
        <g transform="matrix(0.421189,-0.906973,0.906973,0.421189,610.342,1569.1)">
            <path d="M623.587,380.082L715.824,482.05C715.824,482.05 754.326,453.068 760.673,388.756C764.481,325.291 725.555,288.031 725.555,288.031C711.593,300.936 623.587,380.082 623.587,380.082Z" style="fill:rgb(207,82,158);stroke:black;stroke-opacity:0;stroke-width:1px;"/>
            <path d="M702.602,467.097L716.141,482.05C716.141,482.05 760.626,444.249 761.358,387.384C762.09,330.519 737.465,296.553 725.449,288.031C720.203,293.387 718.51,294.155 711.91,300.372C726.803,319.958 740.918,369.681 740.071,385.759C739.225,401.837 720.372,454.789 702.602,467.097Z" style="fill:rgb(3,103,93);stroke:black;stroke-opacity:0;stroke-width:1px;"/>
            <path d="M711.91,300.372C707.632,303.256 705.309,306.126 705.309,306.126C721.895,323.05 737.709,362.856 734.358,389.616C731.397,411.57 727.514,432.952 699.217,463.52C704.294,469.276 705.309,470.8 705.309,470.8C705.309,470.8 741.155,437.059 743.693,390.413C745.386,340.383 722.741,311.011 711.91,300.372Z" style="fill:white;stroke:black;stroke-opacity:0;stroke-width:1px;"/>
            <g transform="matrix(0.887511,-0.460786,0.460786,0.887511,-590.561,410.68)">
                <path d="M1124.43,583.817C1122.18,587.153 1122.95,594.395 1124.85,600.741C1126.76,607.088 1129.38,610.802 1132.82,611.904C1135.02,609.748 1135.22,604.972 1133.31,597.356C1131.41,589.74 1126.68,583.323 1124.43,583.817Z" style="stroke:black;stroke-width:1px;"/>
            </g>
            <g transform="matrix(-0.432224,-0.901766,0.901766,-0.432224,633.83,1635.84)">
                <path d="M1124.43,583.817C1122.18,587.153 1122.95,594.395 1124.85,600.741C1126.76,607.088 1129.38,610.802 1132.82,611.904C1135.02,609.748 1135.22,604.972 1133.31,597.356C1131.41,589.74 1126.68,583.323 1124.43,583.817Z" style="stroke:black;stroke-width:1px;"/>
            </g>
        </g>
        <g transform="matrix(0.32566,0.945487,-0.945487,0.32566,448.187,-33.9169)">
            <path d="M623.587,380.082L715.824,482.05C715.824,482.05 754.326,453.068 760.673,388.756C764.481,325.291 725.555,288.031 725.555,288.031C711.593,300.936 623.587,380.082 623.587,380.082Z" style="fill:rgb(207,82,158);stroke:black;stroke-opacity:0;stroke-width:1px;"/>
            <path d="M702.602,467.097L716.141,482.05C716.141,482.05 760.626,444.249 761.358,387.384C762.09,330.519 737.465,296.553 725.449,288.031C720.203,293.387 718.51,294.155 711.91,300.372C726.803,319.958 740.918,369.681 740.071,385.759C739.225,401.837 720.372,454.789 702.602,467.097Z" style="fill:rgb(3,103,93);stroke:black;stroke-opacity:0;stroke-width:1px;"/>
            <path d="M711.91,300.372C707.632,303.256 705.309,306.126 705.309,306.126C721.895,323.05 737.709,362.856 734.358,389.616C731.397,411.57 727.514,432.952 699.217,463.52C704.294,469.276 705.309,470.8 705.309,470.8C705.309,470.8 741.155,437.059 743.693,390.413C745.386,340.383 722.741,311.011 711.91,300.372Z" style="fill:white;stroke:black;stroke-opacity:0;stroke-width:1px;"/>
            <g transform="matrix(0.887511,-0.460786,0.460786,0.887511,-590.561,410.68)">
                <path d="M1124.43,583.817C1122.18,587.153 1122.95,594.395 1124.85,600.741C1126.76,607.088 1129.38,610.802 1132.82,611.904C1135.02,609.748 1135.22,604.972 1133.31,597.356C1131.41,589.74 1126.68,583.323 1124.43,583.817Z" style="stroke:black;stroke-width:1px;"/>
            </g>
            <g transform="matrix(-0.432224,-0.901766,0.901766,-0.432224,633.83,1635.84)">
                <path d="M1124.43,583.817C1122.18,587.153 1122.95,594.395 1124.85,600.741C1126.76,607.088 1129.38,610.802 1132.82,611.904C1135.02,609.748 1135.22,604.972 1133.31,597.356C1131.41,589.74 1126.68,583.323 1124.43,583.817Z" style="stroke:black;stroke-width:1px;"/>
            </g>
        </g>
        <g transform="matrix(0.553582,-0.832795,0.832795,0.553582,1683.62,1612.94)">
            <path d="M623.587,380.082L715.824,482.05C715.824,482.05 754.326,453.068 760.673,388.756C764.481,325.291 725.555,288.031 725.555,288.031C711.593,300.936 623.587,380.082 623.587,380.082Z" style="fill:rgb(207,82,158);stroke:black;stroke-opacity:0;stroke-width:1px;"/>
            <path d="M702.602,467.097L716.141,482.05C716.141,482.05 760.626,444.249 761.358,387.384C762.09,330.519 737.465,296.553 725.449,288.031C720.203,293.387 718.51,294.155 711.91,300.372C726.803,319.958 740.918,369.681 740.071,385.759C739.225,401.837 720.372,454.789 702.602,467.097Z" style="fill:rgb(3,103,93);stroke:black;stroke-opacity:0;stroke-width:1px;"/>
            <path d="M711.91,300.372C707.632,303.256 705.309,306.126 705.309,306.126C721.895,323.05 737.709,362.856 734.358,389.616C731.397,411.57 727.514,432.952 699.217,463.52C704.294,469.276 705.309,470.8 705.309,470.8C705.309,470.8 741.155,437.059 743.693,390.413C745.386,340.383 722.741,311.011 711.91,300.372Z" style="fill:white;stroke:black;stroke-opacity:0;stroke-width:1px;"/>
            <g transform="matrix(0.887511,-0.460786,0.460786,0.887511,-590.561,410.68)">
                <path d="M1124.43,583.817C1122.18,587.153 1122.95,594.395 1124.85,600.741C1126.76,607.088 1129.38,610.802 1132.82,611.904C1135.02,609.748 1135.22,604.972 1133.31,597.356C1131.41,589.74 1126.68,583.323 1124.43,583.817Z" style="stroke:black;stroke-width:1px;"/>
            </g>
            <g transform="matrix(-0.432224,-0.901766,0.901766,-0.432224,633.83,1635.84)">
                <path d="M1124.43,583.817C1122.18,587.153 1122.95,594.395 1124.85,600.741C1126.76,607.088 1129.38,610.802 1132.82,611.904C1135.02,609.748 1135.22,604.972 1133.31,597.356C1131.41,589.74 1126.68,583.323 1124.43,583.817Z" style="stroke:black;stroke-width:1px;"/>
            </g>
        </g>
        <g transform="matrix(-0.637727,-0.770262,0.770262,-0.637727,1646.13,1158.58)">
            <path d="M623.587,380.082L715.824,482.05C715.824,482.05 754.326,453.068 760.673,388.756C764.481,325.291 725.555,288.031 725.555,288.031C711.593,300.936 623.587,380.082 623.587,380.082Z" style="fill:rgb(207,82,158);stroke:black;stroke-opacity:0;stroke-width:1px;"/>
            <path d="M702.602,467.097L716.141,482.05C716.141,482.05 760.626,444.249 761.358,387.384C762.09,330.519 737.465,296.553 725.449,288.031C720.203,293.387 718.51,294.155 711.91,300.372C726.803,319.958 740.918,369.681 740.071,385.759C739.225,401.837 720.372,454.789 702.602,467.097Z" style="fill:rgb(3,103,93);stroke:black;stroke-opacity:0;stroke-width:1px;"/>
            <path d="M711.91,300.372C707.632,303.256 705.309,306.126 705.309,306.126C721.895,323.05 737.709,362.856 734.358,389.616C731.397,411.57 727.514,432.952 699.217,463.52C704.294,469.276 705.309,470.8 705.309,470.8C705.309,470.8 741.155,437.059 743.693,390.413C745.386,340.383 722.741,311.011 711.91,300.372Z" style="fill:white;stroke:black;stroke-opacity:0;stroke-width:1px;"/>
            <g transform="matrix(0.887511,-0.460786,0.460786,0.887511,-590.561,410.68)">
                <path d="M1124.43,583.817C1122.18,587.153 1122.95,594.395 1124.85,600.741C1126.76,607.088 1129.38,610.802 1132.82,611.904C1135.02,609.748 1135.22,604.972 1133.31,597.356C1131.41,589.74 1126.68,583.323 1124.43,583.817Z" style="stroke:black;stroke-width:1px;"/>
            </g>
            <g transform="matrix(-0.432224,-0.901766,0.901766,-0.432224,633.83,1635.84)">
                <path d="M1124.43,583.817C1122.18,587.153 1122.95,594.395 1124.85,600.741C1126.76,607.088 1129.38,610.802 1132.82,611.904C1135.02,609.748 1135.22,604.972 1133.31,597.356C1131.41,589.74 1126.68,583.323 1124.43,583.817Z" style="stroke:black;stroke-width:1px;"/>
            </g>
        </g>
        <g transform="matrix(0.358773,0.933425,-0.933425,0.358773,2341.29,-766.704)">
            <path d="M623.587,380.082L715.824,482.05C715.824,482.05 754.326,453.068 760.673,388.756C764.481,325.291 725.555,288.031 725.555,288.031C711.593,300.936 623.587,380.082 623.587,380.082Z" style="fill:rgb(207,82,158);stroke:black;stroke-opacity:0;stroke-width:1px;"/>
            <path d="M702.602,467.097L716.141,482.05C716.141,482.05 760.626,444.249 761.358,387.384C762.09,330.519 737.465,296.553 725.449,288.031C720.203,293.387 718.51,294.155 711.91,300.372C726.803,319.958 740.918,369.681 740.071,385.759C739.225,401.837 720.372,454.789 702.602,467.097Z" style="fill:rgb(3,103,93);stroke:black;stroke-opacity:0;stroke-width:1px;"/>
            <path d="M711.91,300.372C707.632,303.256 705.309,306.126 705.309,306.126C721.895,323.05 737.709,362.856 734.358,389.616C731.397,411.57 727.514,432.952 699.217,463.52C704.294,469.276 705.309,470.8 705.309,470.8C705.309,470.8 741.155,437.059 743.693,390.413C745.386,340.383 722.741,311.011 711.91,300.372Z" style="fill:white;stroke:black;stroke-opacity:0;stroke-width:1px;"/>
            <g transform="matrix(0.887511,-0.460786,0.460786,0.887511,-590.561,410.68)">
                <path d="M1124.43,583.817C1122.18,587.153 1122.95,594.395 1124.85,600.741C1126.76,607.088 1129.38,610.802 1132.82,611.904C1135.02,609.748 1135.22,604.972 1133.31,597.356C1131.41,589.74 1126.68,583.323 1124.43,583.817Z" style="stroke:black;stroke-width:1px;"/>
            </g>
            <g transform="matrix(-0.432224,-0.901766,0.901766,-0.432224,633.83,1635.84)">
                <path d="M1124.43,583.817C1122.18,587.153 1122.95,594.395 1124.85,600.741C1126.76,607.088 1129.38,610.802 1132.82,611.904C1135.02,609.748 1135.22,604.972 1133.31,597.356C1131.41,589.74 1126.68,583.323 1124.43,583.817Z" style="stroke:black;stroke-width:1px;"/>
            </g>
        </g>
        <g transform="matrix(0.104312,-0.994545,0.994545,0.104312,388.546,2425.23)">
            <path d="M1060.71,392.038C1060.71,392.038 1008.06,414.176 989.631,467.259C979.815,495.527 972.64,529.165 990.301,570.534C1042.53,692.874 1166.58,656.324 1175.08,648.213C1156.57,608.217 1060.71,392.038 1060.71,392.038Z" style="fill:rgb(1,105,90);stroke:black;stroke-opacity:0;stroke-width:1px;"/>
            <path d="M1069.81,412.286L1164.79,625.53C1164.79,625.53 1062.19,666.231 1022.84,583.79C983.495,501.349 1025.17,422.432 1069.81,412.286Z" style="fill:rgb(207,82,158);stroke:black;stroke-opacity:0;stroke-width:1px;"/>
            <path d="M1067.83,409.073C1051.8,412.3 967.889,471.406 1006.83,565.943C1046.83,659.158 1147.44,645.519 1167.27,631.305C1166.12,628.889 1163.64,623.525 1163.64,623.525C1144.25,632.33 1055,649.918 1016.75,563.299C988.648,477.356 1038.56,434.054 1071.95,417.196C1070.55,413.436 1067.83,409.073 1067.83,409.073Z" style="fill:white;stroke:black;stroke-opacity:0;stroke-width:1px;"/>
            <path d="M1124.43,583.817C1122.18,587.153 1122.95,594.395 1124.85,600.741C1126.76,607.088 1129.38,610.802 1132.82,611.904C1135.02,609.748 1135.22,604.972 1133.31,597.356C1131.41,589.74 1126.68,583.323 1124.43,583.817Z" style="stroke:black;stroke-width:1px;"/>
            <g transform="matrix(0.686568,0.727065,-0.727065,0.686568,744.262,-641.55)">
                <path d="M1124.43,583.817C1122.18,587.153 1122.95,594.395 1124.85,600.741C1126.76,607.088 1129.38,610.802 1132.82,611.904C1135.02,609.748 1135.22,604.972 1133.31,597.356C1131.41,589.74 1126.68,583.323 1124.43,583.817Z"/>
                <clipPath id="_clip1">
                    <path d="M1124.43,583.817C1122.18,587.153 1122.95,594.395 1124.85,600.741C1126.76,607.088 1129.38,610.802 1132.82,611.904C1135.02,609.748 1135.22,604.972 1133.31,597.356C1131.41,589.74 1126.68,583.323 1124.43,583.817Z"/>
                </clipPath>
                <g clip-path="url(#_clip1)">
                    <g transform="matrix(0.800688,0.599082,-0.599082,0.800688,532.075,-557.327)">
                        <path d="M1124.43,583.817C1122.18,587.153 1122.95,594.395 1124.85,600.741C1126.76,607.088 1129.38,610.802 1132.82,611.904C1135.02,609.748 1135.22,604.972 1133.31,597.356C1131.41,589.74 1126.68,583.323 1124.43,583.817Z" style="fill:none;stroke:black;stroke-width:1px;"/>
                    </g>
                </g>
                <path d="M1124.43,583.817C1122.18,587.153 1122.95,594.395 1124.85,600.741C1126.76,607.088 1129.38,610.802 1132.82,611.904C1135.02,609.748 1135.22,604.972 1133.31,597.356C1131.41,589.74 1126.68,583.323 1124.43,583.817Z" style="fill:none;stroke:black;stroke-width:1px;"/>
            </g>
            <g transform="matrix(0.114155,0.993463,-0.993463,0.114155,1514.78,-637.339)">
                <path d="M1124.43,583.817C1122.18,587.153 1122.95,594.395 1124.85,600.741C1126.76,607.088 1129.38,610.802 1132.82,611.904C1135.02,609.748 1135.22,604.972 1133.31,597.356C1131.41,589.74 1126.68,583.323 1124.43,583.817Z" style="stroke:black;stroke-width:1px;"/>
            </g>
            <g transform="matrix(-0.551835,0.833953,-0.833953,-0.551835,2163.28,-110.42)">
                <path d="M1124.43,583.817C1122.18,587.153 1122.95,594.395 1124.85,600.741C1126.76,607.088 1129.38,610.802 1132.82,611.904C1135.02,609.748 1135.22,604.972 1133.31,597.356C1131.41,589.74 1126.68,583.323 1124.43,583.817Z" style="stroke:black;stroke-width:1px;"/>
            </g>
            <g transform="matrix(-0.910739,0.412982,-0.412982,-0.910739,2340.63,544.98)">
                <path d="M1124.43,583.817C1122.18,587.153 1122.95,594.395 1124.85,600.741C1126.76,607.088 1129.38,610.802 1132.82,611.904C1135.02,609.748 1135.22,604.972 1133.31,597.356C1131.41,589.74 1126.68,583.323 1124.43,583.817Z" style="stroke:black;stroke-width:1px;"/>
            </g>
        </g>
        <g transform="matrix(0.191391,0.981514,-0.981514,0.191391,1424.65,-1126.15)">
            <path d="M1060.71,392.038C1060.71,392.038 1008.06,414.176 989.631,467.259C979.815,495.527 972.64,529.165 990.301,570.534C1042.53,692.874 1166.58,656.324 1175.08,648.213C1156.57,608.217 1060.71,392.038 1060.71,392.038Z" style="fill:rgb(1,105,90);stroke:black;stroke-opacity:0;stroke-width:1px;"/>
            <path d="M1069.81,412.286L1164.79,625.53C1164.79,625.53 1062.19,666.231 1022.84,583.79C983.495,501.349 1025.17,422.432 1069.81,412.286Z" style="fill:rgb(207,82,158);stroke:black;stroke-opacity:0;stroke-width:1px;"/>
            <path d="M1067.83,409.073C1051.8,412.3 967.889,471.406 1006.83,565.943C1046.83,659.158 1147.44,645.519 1167.27,631.305C1166.12,628.889 1163.64,623.525 1163.64,623.525C1144.25,632.33 1055,649.918 1016.75,563.299C988.648,477.356 1038.56,434.054 1071.95,417.196C1070.55,413.436 1067.83,409.073 1067.83,409.073Z" style="fill:white;stroke:black;stroke-opacity:0;stroke-width:1px;"/>
            <path d="M1124.43,583.817C1122.18,587.153 1122.95,594.395 1124.85,600.741C1126.76,607.088 1129.38,610.802 1132.82,611.904C1135.02,609.748 1135.22,604.972 1133.31,597.356C1131.41,589.74 1126.68,583.323 1124.43,583.817Z" style="stroke:black;stroke-width:1px;"/>
            <g transform="matrix(0.686568,0.727065,-0.727065,0.686568,744.262,-641.55)">
                <path d="M1124.43,583.817C1122.18,587.153 1122.95,594.395 1124.85,600.741C1126.76,607.088 1129.38,610.802 1132.82,611.904C1135.02,609.748 1135.22,604.972 1133.31,597.356C1131.41,589.74 1126.68,583.323 1124.43,583.817Z"/>
                <clipPath id="_clip2">
                    <path d="M1124.43,583.817C1122.18,587.153 1122.95,594.395 1124.85,600.741C1126.76,607.088 1129.38,610.802 1132.82,611.904C1135.02,609.748 1135.22,604.972 1133.31,597.356C1131.41,589.74 1126.68,583.323 1124.43,583.817Z"/>
                </clipPath>
                <g clip-path="url(#_clip2)">
                    <g transform="matrix(0.800688,0.599082,-0.599082,0.800688,532.075,-557.327)">
                        <path d="M1124.43,583.817C1122.18,587.153 1122.95,594.395 1124.85,600.741C1126.76,607.088 1129.38,610.802 1132.82,611.904C1135.02,609.748 1135.22,604.972 1133.31,597.356C1131.41,589.74 1126.68,583.323 1124.43,583.817Z" style="fill:none;stroke:black;stroke-width:1px;"/>
                    </g>
                </g>
                <path d="M1124.43,583.817C1122.18,587.153 1122.95,594.395 1124.85,600.741C1126.76,607.088 1129.38,610.802 1132.82,611.904C1135.02,609.748 1135.22,604.972 1133.31,597.356C1131.41,589.74 1126.68,583.323 1124.43,583.817Z" style="fill:none;stroke:black;stroke-width:1px;"/>
            </g>
            <g transform="matrix(0.114155,0.993463,-0.993463,0.114155,1514.78,-637.339)">
                <path d="M1124.43,583.817C1122.18,587.153 1122.95,594.395 1124.85,600.741C1126.76,607.088 1129.38,610.802 1132.82,611.904C1135.02,609.748 1135.22,604.972 1133.31,597.356C1131.41,589.74 1126.68,583.323 1124.43,583.817Z" style="stroke:black;stroke-width:1px;"/>
            </g>
            <g transform="matrix(-0.551835,0.833953,-0.833953,-0.551835,2163.28,-110.42)">
                <path d="M1124.43,583.817C1122.18,587.153 1122.95,594.395 1124.85,600.741C1126.76,607.088 1129.38,610.802 1132.82,611.904C1135.02,609.748 1135.22,604.972 1133.31,597.356C1131.41,589.74 1126.68,583.323 1124.43,583.817Z" style="stroke:black;stroke-width:1px;"/>
            </g>
            <g transform="matrix(-0.910739,0.412982,-0.412982,-0.910739,2340.63,544.98)">
                <path d="M1124.43,583.817C1122.18,587.153 1122.95,594.395 1124.85,600.741C1126.76,607.088 1129.38,610.802 1132.82,611.904C1135.02,609.748 1135.22,604.972 1133.31,597.356C1131.41,589.74 1126.68,583.323 1124.43,583.817Z" style="stroke:black;stroke-width:1px;"/>
            </g>
        </g>
        <g transform="matrix(-0.170268,0.985398,-0.985398,-0.170268,2234.89,-126.604)">
            <path d="M1060.71,392.038C1060.71,392.038 1008.06,414.176 989.631,467.259C979.815,495.527 972.64,529.165 990.301,570.534C1042.53,692.874 1166.58,656.324 1175.08,648.213C1156.57,608.217 1060.71,392.038 1060.71,392.038Z" style="fill:rgb(1,105,90);stroke:black;stroke-opacity:0;stroke-width:1px;"/>
            <path d="M1069.81,412.286L1164.79,625.53C1164.79,625.53 1062.19,666.231 1022.84,583.79C983.495,501.349 1025.17,422.432 1069.81,412.286Z" style="fill:rgb(207,82,158);stroke:black;stroke-opacity:0;stroke-width:1px;"/>
            <path d="M1067.83,409.073C1051.8,412.3 967.889,471.406 1006.83,565.943C1046.83,659.158 1147.44,645.519 1167.27,631.305C1166.12,628.889 1163.64,623.525 1163.64,623.525C1144.25,632.33 1055,649.918 1016.75,563.299C988.648,477.356 1038.56,434.054 1071.95,417.196C1070.55,413.436 1067.83,409.073 1067.83,409.073Z" style="fill:white;stroke:black;stroke-opacity:0;stroke-width:1px;"/>
            <path d="M1124.43,583.817C1122.18,587.153 1122.95,594.395 1124.85,600.741C1126.76,607.088 1129.38,610.802 1132.82,611.904C1135.02,609.748 1135.22,604.972 1133.31,597.356C1131.41,589.74 1126.68,583.323 1124.43,583.817Z" style="stroke:black;stroke-width:1px;"/>
            <g transform="matrix(0.686568,0.727065,-0.727065,0.686568,744.262,-641.55)">
                <path d="M1124.43,583.817C1122.18,587.153 1122.95,594.395 1124.85,600.741C1126.76,607.088 1129.38,610.802 1132.82,611.904C1135.02,609.748 1135.22,604.972 1133.31,597.356C1131.41,589.74 1126.68,583.323 1124.43,583.817Z"/>
                <clipPath id="_clip3">
                    <path d="M1124.43,583.817C1122.18,587.153 1122.95,594.395 1124.85,600.741C1126.76,607.088 1129.38,610.802 1132.82,611.904C1135.02,609.748 1135.22,604.972 1133.31,597.356C1131.41,589.74 1126.68,583.323 1124.43,583.817Z"/>
                </clipPath>
                <g clip-path="url(#_clip3)">
                    <g transform="matrix(0.800688,0.599082,-0.599082,0.800688,532.075,-557.327)">
                        <path d="M1124.43,583.817C1122.18,587.153 1122.95,594.395 1124.85,600.741C1126.76,607.088 1129.38,610.802 1132.82,611.904C1135.02,609.748 1135.22,604.972 1133.31,597.356C1131.41,589.74 1126.68,583.323 1124.43,583.817Z" style="fill:none;stroke:black;stroke-width:1px;"/>
                    </g>
                </g>
                <path d="M1124.43,583.817C1122.18,587.153 1122.95,594.395 1124.85,600.741C1126.76,607.088 1129.38,610.802 1132.82,611.904C1135.02,609.748 1135.22,604.972 1133.31,597.356C1131.41,589.74 1126.68,583.323 1124.43,583.817Z" style="fill:none;stroke:black;stroke-width:1px;"/>
            </g>
            <g transform="matrix(0.114155,0.993463,-0.993463,0.114155,1514.78,-637.339)">
                <path d="M1124.43,583.817C1122.18,587.153 1122.95,594.395 1124.85,600.741C1126.76,607.088 1129.38,610.802 1132.82,611.904C1135.02,609.748 1135.22,604.972 1133.31,597.356C1131.41,589.74 1126.68,583.323 1124.43,583.817Z" style="stroke:black;stroke-width:1px;"/>
            </g>
            <g transform="matrix(-0.551835,0.833953,-0.833953,-0.551835,2163.28,-110.42)">
                <path d="M1124.43,583.817C1122.18,587.153 1122.95,594.395 1124.85,600.741C1126.76,607.088 1129.38,610.802 1132.82,611.904C1135.02,609.748 1135.22,604.972 1133.31,597.356C1131.41,589.74 1126.68,583.323 1124.43,583.817Z" style="stroke:black;stroke-width:1px;"/>
            </g>
            <g transform="matrix(-0.910739,0.412982,-0.412982,-0.910739,2340.63,544.98)">
                <path d="M1124.43,583.817C1122.18,587.153 1122.95,594.395 1124.85,600.741C1126.76,607.088 1129.38,610.802 1132.82,611.904C1135.02,609.748 1135.22,604.972 1133.31,597.356C1131.41,589.74 1126.68,583.323 1124.43,583.817Z" style="stroke:black;stroke-width:1px;"/>
            </g>
        </g>
        <g transform="matrix(-0.0618846,-0.998083,0.998083,-0.0618846,2010.13,1603.51)">
            <path d="M1060.71,392.038C1060.71,392.038 1008.06,414.176 989.631,467.259C979.815,495.527 972.64,529.165 990.301,570.534C1042.53,692.874 1166.58,656.324 1175.08,648.213C1156.57,608.217 1060.71,392.038 1060.71,392.038Z" style="fill:rgb(1,105,90);stroke:black;stroke-opacity:0;stroke-width:1px;"/>
            <path d="M1069.81,412.286L1164.79,625.53C1164.79,625.53 1062.19,666.231 1022.84,583.79C983.495,501.349 1025.17,422.432 1069.81,412.286Z" style="fill:rgb(207,82,158);stroke:black;stroke-opacity:0;stroke-width:1px;"/>
            <path d="M1067.83,409.073C1051.8,412.3 967.889,471.406 1006.83,565.943C1046.83,659.158 1147.44,645.519 1167.27,631.305C1166.12,628.889 1163.64,623.525 1163.64,623.525C1144.25,632.33 1055,649.918 1016.75,563.299C988.648,477.356 1038.56,434.054 1071.95,417.196C1070.55,413.436 1067.83,409.073 1067.83,409.073Z" style="fill:white;stroke:black;stroke-opacity:0;stroke-width:1px;"/>
            <path d="M1124.43,583.817C1122.18,587.153 1122.95,594.395 1124.85,600.741C1126.76,607.088 1129.38,610.802 1132.82,611.904C1135.02,609.748 1135.22,604.972 1133.31,597.356C1131.41,589.74 1126.68,583.323 1124.43,583.817Z" style="stroke:black;stroke-width:1px;"/>
            <g transform="matrix(0.686568,0.727065,-0.727065,0.686568,744.262,-641.55)">
                <path d="M1124.43,583.817C1122.18,587.153 1122.95,594.395 1124.85,600.741C1126.76,607.088 1129.38,610.802 1132.82,611.904C1135.02,609.748 1135.22,604.972 1133.31,597.356C1131.41,589.74 1126.68,583.323 1124.43,583.817Z"/>
                <clipPath id="_clip4">
                    <path d="M1124.43,583.817C1122.18,587.153 1122.95,594.395 1124.85,600.741C1126.76,607.088 1129.38,610.802 1132.82,611.904C1135.02,609.748 1135.22,604.972 1133.31,597.356C1131.41,589.74 1126.68,583.323 1124.43,583.817Z"/>
                </clipPath>
                <g clip-path="url(#_clip4)">
                    <g transform="matrix(0.800688,0.599082,-0.599082,0.800688,532.075,-557.327)">
                        <path d="M1124.43,583.817C1122.18,587.153 1122.95,594.395 1124.85,600.741C1126.76,607.088 1129.38,610.802 1132.82,611.904C1135.02,609.748 1135.22,604.972 1133.31,597.356C1131.41,589.74 1126.68,583.323 1124.43,583.817Z" style="fill:none;stroke:black;stroke-width:1px;"/>
                    </g>
                </g>
                <path d="M1124.43,583.817C1122.18,587.153 1122.95,594.395 1124.85,600.741C1126.76,607.088 1129.38,610.802 1132.82,611.904C1135.02,609.748 1135.22,604.972 1133.31,597.356C1131.41,589.74 1126.68,583.323 1124.43,583.817Z" style="fill:none;stroke:black;stroke-width:1px;"/>
            </g>
            <g transform="matrix(0.114155,0.993463,-0.993463,0.114155,1514.78,-637.339)">
                <path d="M1124.43,583.817C1122.18,587.153 1122.95,594.395 1124.85,600.741C1126.76,607.088 1129.38,610.802 1132.82,611.904C1135.02,609.748 1135.22,604.972 1133.31,597.356C1131.41,589.74 1126.68,583.323 1124.43,583.817Z" style="stroke:black;stroke-width:1px;"/>
            </g>
            <g transform="matrix(-0.551835,0.833953,-0.833953,-0.551835,2163.28,-110.42)">
                <path d="M1124.43,583.817C1122.18,587.153 1122.95,594.395 1124.85,600.741C1126.76,607.088 1129.38,610.802 1132.82,611.904C1135.02,609.748 1135.22,604.972 1133.31,597.356C1131.41,589.74 1126.68,583.323 1124.43,583.817Z" style="stroke:black;stroke-width:1px;"/>
            </g>
            <g transform="matrix(-0.910739,0.412982,-0.412982,-0.910739,2340.63,544.98)">
                <path d="M1124.43,583.817C1122.18,587.153 1122.95,594.395 1124.85,600.741C1126.76,607.088 1129.38,610.802 1132.82,611.904C1135.02,609.748 1135.22,604.972 1133.31,597.356C1131.41,589.74 1126.68,583.323 1124.43,583.817Z" style="stroke:black;stroke-width:1px;"/>
            </g>
        </g>
        <g transform="matrix(-0.711577,0.702608,-0.702608,-0.711577,1868.09,647.951)">
            <path d="M1060.71,392.038C1060.71,392.038 1008.06,414.176 989.631,467.259C979.815,495.527 972.64,529.165 990.301,570.534C1042.53,692.874 1166.58,656.324 1175.08,648.213C1156.57,608.217 1060.71,392.038 1060.71,392.038Z" style="fill:rgb(1,105,90);stroke:black;stroke-opacity:0;stroke-width:1px;"/>
            <path d="M1069.81,412.286L1164.79,625.53C1164.79,625.53 1062.19,666.231 1022.84,583.79C983.495,501.349 1025.17,422.432 1069.81,412.286Z" style="fill:rgb(207,82,158);stroke:black;stroke-opacity:0;stroke-width:1px;"/>
            <path d="M1067.83,409.073C1051.8,412.3 967.889,471.406 1006.83,565.943C1046.83,659.158 1147.44,645.519 1167.27,631.305C1166.12,628.889 1163.64,623.525 1163.64,623.525C1144.25,632.33 1055,649.918 1016.75,563.299C988.648,477.356 1038.56,434.054 1071.95,417.196C1070.55,413.436 1067.83,409.073 1067.83,409.073Z" style="fill:white;stroke:black;stroke-opacity:0;stroke-width:1px;"/>
            <path d="M1124.43,583.817C1122.18,587.153 1122.95,594.395 1124.85,600.741C1126.76,607.088 1129.38,610.802 1132.82,611.904C1135.02,609.748 1135.22,604.972 1133.31,597.356C1131.41,589.74 1126.68,583.323 1124.43,583.817Z" style="stroke:black;stroke-width:1px;"/>
            <g transform="matrix(0.686568,0.727065,-0.727065,0.686568,744.262,-641.55)">
                <path d="M1124.43,583.817C1122.18,587.153 1122.95,594.395 1124.85,600.741C1126.76,607.088 1129.38,610.802 1132.82,611.904C1135.02,609.748 1135.22,604.972 1133.31,597.356C1131.41,589.74 1126.68,583.323 1124.43,583.817Z"/>
                <clipPath id="_clip5">
                    <path d="M1124.43,583.817C1122.18,587.153 1122.95,594.395 1124.85,600.741C1126.76,607.088 1129.38,610.802 1132.82,611.904C1135.02,609.748 1135.22,604.972 1133.31,597.356C1131.41,589.74 1126.68,583.323 1124.43,583.817Z"/>
                </clipPath>
                <g clip-path="url(#_clip5)">
                    <g transform="matrix(0.800688,0.599082,-0.599082,0.800688,532.075,-557.327)">
                        <path d="M1124.43,583.817C1122.18,587.153 1122.95,594.395 1124.85,600.741C1126.76,607.088 1129.38,610.802 1132.82,611.904C1135.02,609.748 1135.22,604.972 1133.31,597.356C1131.41,589.74 1126.68,583.323 1124.43,583.817Z" style="fill:none;stroke:black;stroke-width:1px;"/>
                    </g>
                </g>
                <path d="M1124.43,583.817C1122.18,587.153 1122.95,594.395 1124.85,600.741C1126.76,607.088 1129.38,610.802 1132.82,611.904C1135.02,609.748 1135.22,604.972 1133.31,597.356C1131.41,589.74 1126.68,583.323 1124.43,583.817Z" style="fill:none;stroke:black;stroke-width:1px;"/>
            </g>
            <g transform="matrix(0.114155,0.993463,-0.993463,0.114155,1514.78,-637.339)">
                <path d="M1124.43,583.817C1122.18,587.153 1122.95,594.395 1124.85,600.741C1126.76,607.088 1129.38,610.802 1132.82,611.904C1135.02,609.748 1135.22,604.972 1133.31,597.356C1131.41,589.74 1126.68,583.323 1124.43,583.817Z" style="stroke:black;stroke-width:1px;"/>
            </g>
            <g transform="matrix(-0.551835,0.833953,-0.833953,-0.551835,2163.28,-110.42)">
                <path d="M1124.43,583.817C1122.18,587.153 1122.95,594.395 1124.85,600.741C1126.76,607.088 1129.38,610.802 1132.82,611.904C1135.02,609.748 1135.22,604.972 1133.31,597.356C1131.41,589.74 1126.68,583.323 1124.43,583.817Z" style="stroke:black;stroke-width:1px;"/>
            </g>
            <g transform="matrix(-0.910739,0.412982,-0.412982,-0.910739,2340.63,544.98)">
                <path d="M1124.43,583.817C1122.18,587.153 1122.95,594.395 1124.85,600.741C1126.76,607.088 1129.38,610.802 1132.82,611.904C1135.02,609.748 1135.22,604.972 1133.31,597.356C1131.41,589.74 1126.68,583.323 1124.43,583.817Z" style="stroke:black;stroke-width:1px;"/>
            </g>
        </g>
        <g transform="matrix(0.789273,-0.614043,0.614043,0.789273,876.27,899.174)">
            <path d="M1060.71,392.038C1060.71,392.038 1008.06,414.176 989.631,467.259C979.815,495.527 972.64,529.165 990.301,570.534C1042.53,692.874 1166.58,656.324 1175.08,648.213C1156.57,608.217 1060.71,392.038 1060.71,392.038Z" style="fill:rgb(1,105,90);stroke:black;stroke-opacity:0;stroke-width:1px;"/>
            <path d="M1069.81,412.286L1164.79,625.53C1164.79,625.53 1062.19,666.231 1022.84,583.79C983.495,501.349 1025.17,422.432 1069.81,412.286Z" style="fill:rgb(207,82,158);stroke:black;stroke-opacity:0;stroke-width:1px;"/>
            <path d="M1067.83,409.073C1051.8,412.3 967.889,471.406 1006.83,565.943C1046.83,659.158 1147.44,645.519 1167.27,631.305C1166.12,628.889 1163.64,623.525 1163.64,623.525C1144.25,632.33 1055,649.918 1016.75,563.299C988.648,477.356 1038.56,434.054 1071.95,417.196C1070.55,413.436 1067.83,409.073 1067.83,409.073Z" style="fill:white;stroke:black;stroke-opacity:0;stroke-width:1px;"/>
            <path d="M1124.43,583.817C1122.18,587.153 1122.95,594.395 1124.85,600.741C1126.76,607.088 1129.38,610.802 1132.82,611.904C1135.02,609.748 1135.22,604.972 1133.31,597.356C1131.41,589.74 1126.68,583.323 1124.43,583.817Z" style="stroke:black;stroke-width:1px;"/>
            <g transform="matrix(0.686568,0.727065,-0.727065,0.686568,744.262,-641.55)">
                <path d="M1124.43,583.817C1122.18,587.153 1122.95,594.395 1124.85,600.741C1126.76,607.088 1129.38,610.802 1132.82,611.904C1135.02,609.748 1135.22,604.972 1133.31,597.356C1131.41,589.74 1126.68,583.323 1124.43,583.817Z"/>
                <clipPath id="_clip6">
                    <path d="M1124.43,583.817C1122.18,587.153 1122.95,594.395 1124.85,600.741C1126.76,607.088 1129.38,610.802 1132.82,611.904C1135.02,609.748 1135.22,604.972 1133.31,597.356C1131.41,589.74 1126.68,583.323 1124.43,583.817Z"/>
                </clipPath>
                <g clip-path="url(#_clip6)">
                    <g transform="matrix(0.800688,0.599082,-0.599082,0.800688,532.075,-557.327)">
                        <path d="M1124.43,583.817C1122.18,587.153 1122.95,594.395 1124.85,600.741C1126.76,607.088 1129.38,610.802 1132.82,611.904C1135.02,609.748 1135.22,604.972 1133.31,597.356C1131.41,589.74 1126.68,583.323 1124.43,583.817Z" style="fill:none;stroke:black;stroke-width:1px;"/>
                    </g>
                </g>
                <path d="M1124.43,583.817C1122.18,587.153 1122.95,594.395 1124.85,600.741C1126.76,607.088 1129.38,610.802 1132.82,611.904C1135.02,609.748 1135.22,604.972 1133.31,597.356C1131.41,589.74 1126.68,583.323 1124.43,583.817Z" style="fill:none;stroke:black;stroke-width:1px;"/>
            </g>
            <g transform="matrix(0.114155,0.993463,-0.993463,0.114155,1514.78,-637.339)">
                <path d="M1124.43,583.817C1122.18,587.153 1122.95,594.395 1124.85,600.741C1126.76,607.088 1129.38,610.802 1132.82,611.904C1135.02,609.748 1135.22,604.972 1133.31,597.356C1131.41,589.74 1126.68,583.323 1124.43,583.817Z" style="stroke:black;stroke-width:1px;"/>
            </g>
            <g transform="matrix(-0.551835,0.833953,-0.833953,-0.551835,2163.28,-110.42)">
                <path d="M1124.43,583.817C1122.18,587.153 1122.95,594.395 1124.85,600.741C1126.76,607.088 1129.38,610.802 1132.82,611.904C1135.02,609.748 1135.22,604.972 1133.31,597.356C1131.41,589.74 1126.68,583.323 1124.43,583.817Z" style="stroke:black;stroke-width:1px;"/>
            </g>
            <g transform="matrix(-0.910739,0.412982,-0.412982,-0.910739,2340.63,544.98)">
                <path d="M1124.43,583.817C1122.18,587.153 1122.95,594.395 1124.85,600.741C1126.76,607.088 1129.38,610.802 1132.82,611.904C1135.02,609.748 1135.22,604.972 1133.31,597.356C1131.41,589.74 1126.68,583.323 1124.43,583.817Z" style="stroke:black;stroke-width:1px;"/>
            </g>
        </g>
        <g transform="matrix(-0.442524,-0.896757,0.896757,-0.442524,166.017,2473.57)">
            <path d="M1060.71,392.038C1060.71,392.038 1008.06,414.176 989.631,467.259C979.815,495.527 972.64,529.165 990.301,570.534C1042.53,692.874 1166.58,656.324 1175.08,648.213C1156.57,608.217 1060.71,392.038 1060.71,392.038Z" style="fill:rgb(1,105,90);stroke:black;stroke-opacity:0;stroke-width:1px;"/>
            <path d="M1069.81,412.286L1164.79,625.53C1164.79,625.53 1062.19,666.231 1022.84,583.79C983.495,501.349 1025.17,422.432 1069.81,412.286Z" style="fill:rgb(207,82,158);stroke:black;stroke-opacity:0;stroke-width:1px;"/>
            <path d="M1067.83,409.073C1051.8,412.3 967.889,471.406 1006.83,565.943C1046.83,659.158 1147.44,645.519 1167.27,631.305C1166.12,628.889 1163.64,623.525 1163.64,623.525C1144.25,632.33 1055,649.918 1016.75,563.299C988.648,477.356 1038.56,434.054 1071.95,417.196C1070.55,413.436 1067.83,409.073 1067.83,409.073Z" style="fill:white;stroke:black;stroke-opacity:0;stroke-width:1px;"/>
            <path d="M1124.43,583.817C1122.18,587.153 1122.95,594.395 1124.85,600.741C1126.76,607.088 1129.38,610.802 1132.82,611.904C1135.02,609.748 1135.22,604.972 1133.31,597.356C1131.41,589.74 1126.68,583.323 1124.43,583.817Z" style="stroke:black;stroke-width:1px;"/>
            <g transform="matrix(0.686568,0.727065,-0.727065,0.686568,744.262,-641.55)">
                <path d="M1124.43,583.817C1122.18,587.153 1122.95,594.395 1124.85,600.741C1126.76,607.088 1129.38,610.802 1132.82,611.904C1135.02,609.748 1135.22,604.972 1133.31,597.356C1131.41,589.74 1126.68,583.323 1124.43,583.817Z"/>
                <clipPath id="_clip7">
                    <path d="M1124.43,583.817C1122.18,587.153 1122.95,594.395 1124.85,600.741C1126.76,607.088 1129.38,610.802 1132.82,611.904C1135.02,609.748 1135.22,604.972 1133.31,597.356C1131.41,589.74 1126.68,583.323 1124.43,583.817Z"/>
                </clipPath>
                <g clip-path="url(#_clip7)">
                    <g transform="matrix(0.800688,0.599082,-0.599082,0.800688,532.075,-557.327)">
                        <path d="M1124.43,583.817C1122.18,587.153 1122.95,594.395 1124.85,600.741C1126.76,607.088 1129.38,610.802 1132.82,611.904C1135.02,609.748 1135.22,604.972 1133.31,597.356C1131.41,589.74 1126.68,583.323 1124.43,583.817Z" style="fill:none;stroke:black;stroke-width:1px;"/>
                    </g>
                </g>
                <path d="M1124.43,583.817C1122.18,587.153 1122.95,594.395 1124.85,600.741C1126.76,607.088 1129.38,610.802 1132.82,611.904C1135.02,609.748 1135.22,604.972 1133.31,597.356C1131.41,589.74 1126.68,583.323 1124.43,583.817Z" style="fill:none;stroke:black;stroke-width:1px;"/>
            </g>
            <g transform="matrix(0.114155,0.993463,-0.993463,0.114155,1514.78,-637.339)">
                <path d="M1124.43,583.817C1122.18,587.153 1122.95,594.395 1124.85,600.741C1126.76,607.088 1129.38,610.802 1132.82,611.904C1135.02,609.748 1135.22,604.972 1133.31,597.356C1131.41,589.74 1126.68,583.323 1124.43,583.817Z" style="stroke:black;stroke-width:1px;"/>
            </g>
            <g transform="matrix(-0.551835,0.833953,-0.833953,-0.551835,2163.28,-110.42)">
                <path d="M1124.43,583.817C1122.18,587.153 1122.95,594.395 1124.85,600.741C1126.76,607.088 1129.38,610.802 1132.82,611.904C1135.02,609.748 1135.22,604.972 1133.31,597.356C1131.41,589.74 1126.68,583.323 1124.43,583.817Z" style="stroke:black;stroke-width:1px;"/>
            </g>
            <g transform="matrix(-0.910739,0.412982,-0.412982,-0.910739,2340.63,544.98)">
                <path d="M1124.43,583.817C1122.18,587.153 1122.95,594.395 1124.85,600.741C1126.76,607.088 1129.38,610.802 1132.82,611.904C1135.02,609.748 1135.22,604.972 1133.31,597.356C1131.41,589.74 1126.68,583.323 1124.43,583.817Z" style="stroke:black;stroke-width:1px;"/>
            </g>
        </g>
        <g transform="matrix(0.9006,-0.434648,0.434648,0.9006,-808.13,69.5396)">
            <path d="M1060.71,392.038C1060.71,392.038 1008.06,414.176 989.631,467.259C979.815,495.527 972.64,529.165 990.301,570.534C1042.53,692.874 1166.58,656.324 1175.08,648.213C1156.57,608.217 1060.71,392.038 1060.71,392.038Z" style="fill:rgb(1,105,90);stroke:black;stroke-opacity:0;stroke-width:1px;"/>
            <path d="M1069.81,412.286L1164.79,625.53C1164.79,625.53 1062.19,666.231 1022.84,583.79C983.495,501.349 1025.17,422.432 1069.81,412.286Z" style="fill:rgb(207,82,158);stroke:black;stroke-opacity:0;stroke-width:1px;"/>
            <path d="M1067.83,409.073C1051.8,412.3 967.889,471.406 1006.83,565.943C1046.83,659.158 1147.44,645.519 1167.27,631.305C1166.12,628.889 1163.64,623.525 1163.64,623.525C1144.25,632.33 1055,649.918 1016.75,563.299C988.648,477.356 1038.56,434.054 1071.95,417.196C1070.55,413.436 1067.83,409.073 1067.83,409.073Z" style="fill:white;stroke:black;stroke-opacity:0;stroke-width:1px;"/>
            <path d="M1124.43,583.817C1122.18,587.153 1122.95,594.395 1124.85,600.741C1126.76,607.088 1129.38,610.802 1132.82,611.904C1135.02,609.748 1135.22,604.972 1133.31,597.356C1131.41,589.74 1126.68,583.323 1124.43,583.817Z" style="stroke:black;stroke-width:1px;"/>
            <g transform="matrix(0.686568,0.727065,-0.727065,0.686568,744.262,-641.55)">
                <path d="M1124.43,583.817C1122.18,587.153 1122.95,594.395 1124.85,600.741C1126.76,607.088 1129.38,610.802 1132.82,611.904C1135.02,609.748 1135.22,604.972 1133.31,597.356C1131.41,589.74 1126.68,583.323 1124.43,583.817Z"/>
                <clipPath id="_clip8">
                    <path d="M1124.43,583.817C1122.18,587.153 1122.95,594.395 1124.85,600.741C1126.76,607.088 1129.38,610.802 1132.82,611.904C1135.02,609.748 1135.22,604.972 1133.31,597.356C1131.41,589.74 1126.68,583.323 1124.43,583.817Z"/>
                </clipPath>
                <g clip-path="url(#_clip8)">
                    <g transform="matrix(0.800688,0.599082,-0.599082,0.800688,532.075,-557.327)">
                        <path d="M1124.43,583.817C1122.18,587.153 1122.95,594.395 1124.85,600.741C1126.76,607.088 1129.38,610.802 1132.82,611.904C1135.02,609.748 1135.22,604.972 1133.31,597.356C1131.41,589.74 1126.68,583.323 1124.43,583.817Z" style="fill:none;stroke:black;stroke-width:1px;"/>
                    </g>
                </g>
                <path d="M1124.43,583.817C1122.18,587.153 1122.95,594.395 1124.85,600.741C1126.76,607.088 1129.38,610.802 1132.82,611.904C1135.02,609.748 1135.22,604.972 1133.31,597.356C1131.41,589.74 1126.68,583.323 1124.43,583.817Z" style="fill:none;stroke:black;stroke-width:1px;"/>
            </g>
            <g transform="matrix(0.114155,0.993463,-0.993463,0.114155,1514.78,-637.339)">
                <path d="M1124.43,583.817C1122.18,587.153 1122.95,594.395 1124.85,600.741C1126.76,607.088 1129.38,610.802 1132.82,611.904C1135.02,609.748 1135.22,604.972 1133.31,597.356C1131.41,589.74 1126.68,583.323 1124.43,583.817Z" style="stroke:black;stroke-width:1px;"/>
            </g>
            <g transform="matrix(-0.551835,0.833953,-0.833953,-0.551835,2163.28,-110.42)">
                <path d="M1124.43,583.817C1122.18,587.153 1122.95,594.395 1124.85,600.741C1126.76,607.088 1129.38,610.802 1132.82,611.904C1135.02,609.748 1135.22,604.972 1133.31,597.356C1131.41,589.74 1126.68,583.323 1124.43,583.817Z" style="stroke:black;stroke-width:1px;"/>
            </g>
            <g transform="matrix(-0.910739,0.412982,-0.412982,-0.910739,2340.63,544.98)">
                <path d="M1124.43,583.817C1122.18,587.153 1122.95,594.395 1124.85,600.741C1126.76,607.088 1129.38,610.802 1132.82,611.904C1135.02,609.748 1135.22,604.972 1133.31,597.356C1131.41,589.74 1126.68,583.323 1124.43,583.817Z" style="stroke:black;stroke-width:1px;"/>
            </g>
        </g>
        <g transform="matrix(0.12686,0.991921,-0.991921,0.12686,2380.76,12.5719)">
            <path d="M1060.71,392.038C1060.71,392.038 1008.06,414.176 989.631,467.259C979.815,495.527 972.64,529.165 990.301,570.534C1042.53,692.874 1166.58,656.324 1175.08,648.213C1156.57,608.217 1060.71,392.038 1060.71,392.038Z" style="fill:rgb(1,105,90);stroke:black;stroke-opacity:0;stroke-width:1px;"/>
            <path d="M1069.81,412.286L1164.79,625.53C1164.79,625.53 1062.19,666.231 1022.84,583.79C983.495,501.349 1025.17,422.432 1069.81,412.286Z" style="fill:rgb(207,82,158);stroke:black;stroke-opacity:0;stroke-width:1px;"/>
            <path d="M1067.83,409.073C1051.8,412.3 967.889,471.406 1006.83,565.943C1046.83,659.158 1147.44,645.519 1167.27,631.305C1166.12,628.889 1163.64,623.525 1163.64,623.525C1144.25,632.33 1055,649.918 1016.75,563.299C988.648,477.356 1038.56,434.054 1071.95,417.196C1070.55,413.436 1067.83,409.073 1067.83,409.073Z" style="fill:white;stroke:black;stroke-opacity:0;stroke-width:1px;"/>
            <path d="M1124.43,583.817C1122.18,587.153 1122.95,594.395 1124.85,600.741C1126.76,607.088 1129.38,610.802 1132.82,611.904C1135.02,609.748 1135.22,604.972 1133.31,597.356C1131.41,589.74 1126.68,583.323 1124.43,583.817Z" style="stroke:black;stroke-width:1px;"/>
            <g transform="matrix(0.686568,0.727065,-0.727065,0.686568,744.262,-641.55)">
                <path d="M1124.43,583.817C1122.18,587.153 1122.95,594.395 1124.85,600.741C1126.76,607.088 1129.38,610.802 1132.82,611.904C1135.02,609.748 1135.22,604.972 1133.31,597.356C1131.41,589.74 1126.68,583.323 1124.43,583.817Z"/>
                <clipPath id="_clip9">
                    <path d="M1124.43,583.817C1122.18,587.153 1122.95,594.395 1124.85,600.741C1126.76,607.088 1129.38,610.802 1132.82,611.904C1135.02,609.748 1135.22,604.972 1133.31,597.356C1131.41,589.74 1126.68,583.323 1124.43,583.817Z"/>
                </clipPath>
                <g clip-path="url(#_clip9)">
                    <g transform="matrix(0.800688,0.599082,-0.599082,0.800688,532.075,-557.327)">
                        <path d="M1124.43,583.817C1122.18,587.153 1122.95,594.395 1124.85,600.741C1126.76,607.088 1129.38,610.802 1132.82,611.904C1135.02,609.748 1135.22,604.972 1133.31,597.356C1131.41,589.74 1126.68,583.323 1124.43,583.817Z" style="fill:none;stroke:black;stroke-width:1px;"/>
                    </g>
                </g>
                <path d="M1124.43,583.817C1122.18,587.153 1122.95,594.395 1124.85,600.741C1126.76,607.088 1129.38,610.802 1132.82,611.904C1135.02,609.748 1135.22,604.972 1133.31,597.356C1131.41,589.74 1126.68,583.323 1124.43,583.817Z" style="fill:none;stroke:black;stroke-width:1px;"/>
            </g>
            <g transform="matrix(0.114155,0.993463,-0.993463,0.114155,1514.78,-637.339)">
                <path d="M1124.43,583.817C1122.18,587.153 1122.95,594.395 1124.85,600.741C1126.76,607.088 1129.38,610.802 1132.82,611.904C1135.02,609.748 1135.22,604.972 1133.31,597.356C1131.41,589.74 1126.68,583.323 1124.43,583.817Z" style="stroke:black;stroke-width:1px;"/>
            </g>
            <g transform="matrix(-0.551835,0.833953,-0.833953,-0.551835,2163.28,-110.42)">
                <path d="M1124.43,583.817C1122.18,587.153 1122.95,594.395 1124.85,600.741C1126.76,607.088 1129.38,610.802 1132.82,611.904C1135.02,609.748 1135.22,604.972 1133.31,597.356C1131.41,589.74 1126.68,583.323 1124.43,583.817Z" style="stroke:black;stroke-width:1px;"/>
            </g>
            <g transform="matrix(-0.910739,0.412982,-0.412982,-0.910739,2340.63,544.98)">
                <path d="M1124.43,583.817C1122.18,587.153 1122.95,594.395 1124.85,600.741C1126.76,607.088 1129.38,610.802 1132.82,611.904C1135.02,609.748 1135.22,604.972 1133.31,597.356C1131.41,589.74 1126.68,583.323 1124.43,583.817Z" style="stroke:black;stroke-width:1px;"/>
            </g>
        </g>
        <g transform="matrix(0.551584,-0.834119,0.834119,0.551584,-993.869,1076.64)">
            <path d="M1060.71,392.038C1060.71,392.038 1008.06,414.176 989.631,467.259C979.815,495.527 972.64,529.165 990.301,570.534C1042.53,692.874 1166.58,656.324 1175.08,648.213C1156.57,608.217 1060.71,392.038 1060.71,392.038Z" style="fill:rgb(1,105,90);stroke:black;stroke-opacity:0;stroke-width:1px;"/>
            <path d="M1069.81,412.286L1164.79,625.53C1164.79,625.53 1062.19,666.231 1022.84,583.79C983.495,501.349 1025.17,422.432 1069.81,412.286Z" style="fill:rgb(207,82,158);stroke:black;stroke-opacity:0;stroke-width:1px;"/>
            <path d="M1067.83,409.073C1051.8,412.3 967.889,471.406 1006.83,565.943C1046.83,659.158 1147.44,645.519 1167.27,631.305C1166.12,628.889 1163.64,623.525 1163.64,623.525C1144.25,632.33 1055,649.918 1016.75,563.299C988.648,477.356 1038.56,434.054 1071.95,417.196C1070.55,413.436 1067.83,409.073 1067.83,409.073Z" style="fill:white;stroke:black;stroke-opacity:0;stroke-width:1px;"/>
            <path d="M1124.43,583.817C1122.18,587.153 1122.95,594.395 1124.85,600.741C1126.76,607.088 1129.38,610.802 1132.82,611.904C1135.02,609.748 1135.22,604.972 1133.31,597.356C1131.41,589.74 1126.68,583.323 1124.43,583.817Z" style="stroke:black;stroke-width:1px;"/>
            <g transform="matrix(0.686568,0.727065,-0.727065,0.686568,744.262,-641.55)">
                <path d="M1124.43,583.817C1122.18,587.153 1122.95,594.395 1124.85,600.741C1126.76,607.088 1129.38,610.802 1132.82,611.904C1135.02,609.748 1135.22,604.972 1133.31,597.356C1131.41,589.74 1126.68,583.323 1124.43,583.817Z"/>
                <clipPath id="_clip10">
                    <path d="M1124.43,583.817C1122.18,587.153 1122.95,594.395 1124.85,600.741C1126.76,607.088 1129.38,610.802 1132.82,611.904C1135.02,609.748 1135.22,604.972 1133.31,597.356C1131.41,589.74 1126.68,583.323 1124.43,583.817Z"/>
                </clipPath>
                <g clip-path="url(#_clip10)">
                    <g transform="matrix(0.800688,0.599082,-0.599082,0.800688,532.075,-557.327)">
                        <path d="M1124.43,583.817C1122.18,587.153 1122.95,594.395 1124.85,600.741C1126.76,607.088 1129.38,610.802 1132.82,611.904C1135.02,609.748 1135.22,604.972 1133.31,597.356C1131.41,589.74 1126.68,583.323 1124.43,583.817Z" style="fill:none;stroke:black;stroke-width:1px;"/>
                    </g>
                </g>
                <path d="M1124.43,583.817C1122.18,587.153 1122.95,594.395 1124.85,600.741C1126.76,607.088 1129.38,610.802 1132.82,611.904C1135.02,609.748 1135.22,604.972 1133.31,597.356C1131.41,589.74 1126.68,583.323 1124.43,583.817Z" style="fill:none;stroke:black;stroke-width:1px;"/>
            </g>
            <g transform="matrix(0.114155,0.993463,-0.993463,0.114155,1514.78,-637.339)">
                <path d="M1124.43,583.817C1122.18,587.153 1122.95,594.395 1124.85,600.741C1126.76,607.088 1129.38,610.802 1132.82,611.904C1135.02,609.748 1135.22,604.972 1133.31,597.356C1131.41,589.74 1126.68,583.323 1124.43,583.817Z" style="stroke:black;stroke-width:1px;"/>
            </g>
            <g transform="matrix(-0.551835,0.833953,-0.833953,-0.551835,2163.28,-110.42)">
                <path d="M1124.43,583.817C1122.18,587.153 1122.95,594.395 1124.85,600.741C1126.76,607.088 1129.38,610.802 1132.82,611.904C1135.02,609.748 1135.22,604.972 1133.31,597.356C1131.41,589.74 1126.68,583.323 1124.43,583.817Z" style="stroke:black;stroke-width:1px;"/>
            </g>
        </g>
        <g transform="matrix(0.552101,-0.833777,0.833777,0.552101,894.51,902.185)">
            <path d="M1060.71,392.038C1060.71,392.038 1008.06,414.176 989.631,467.259C979.815,495.527 972.64,529.165 990.301,570.534C1042.53,692.874 1166.58,656.324 1175.08,648.213C1156.57,608.217 1060.71,392.038 1060.71,392.038Z" style="fill:rgb(1,105,90);stroke:black;stroke-opacity:0;stroke-width:1px;"/>
            <path d="M1069.81,412.286L1164.79,625.53C1164.79,625.53 1062.19,666.231 1022.84,583.79C983.495,501.349 1025.17,422.432 1069.81,412.286Z" style="fill:rgb(207,82,158);stroke:black;stroke-opacity:0;stroke-width:1px;"/>
            <path d="M1067.83,409.073C1051.8,412.3 967.889,471.406 1006.83,565.943C1046.83,659.158 1147.44,645.519 1167.27,631.305C1166.12,628.889 1163.64,623.525 1163.64,623.525C1144.25,632.33 1055,649.918 1016.75,563.299C988.648,477.356 1038.56,434.054 1071.95,417.196C1070.55,413.436 1067.83,409.073 1067.83,409.073Z" style="fill:white;stroke:black;stroke-opacity:0;stroke-width:1px;"/>
            <path d="M1124.43,583.817C1122.18,587.153 1122.95,594.395 1124.85,600.741C1126.76,607.088 1129.38,610.802 1132.82,611.904C1135.02,609.748 1135.22,604.972 1133.31,597.356C1131.41,589.74 1126.68,583.323 1124.43,583.817Z" style="stroke:black;stroke-width:1px;"/>
            <g transform="matrix(0.686568,0.727065,-0.727065,0.686568,744.262,-641.55)">
                <path d="M1124.43,583.817C1122.18,587.153 1122.95,594.395 1124.85,600.741C1126.76,607.088 1129.38,610.802 1132.82,611.904C1135.02,609.748 1135.22,604.972 1133.31,597.356C1131.41,589.74 1126.68,583.323 1124.43,583.817Z"/>
                <clipPath id="_clip11">
                    <path d="M1124.43,583.817C1122.18,587.153 1122.95,594.395 1124.85,600.741C1126.76,607.088 1129.38,610.802 1132.82,611.904C1135.02,609.748 1135.22,604.972 1133.31,597.356C1131.41,589.74 1126.68,583.323 1124.43,583.817Z"/>
                </clipPath>
                <g clip-path="url(#_clip11)">
                    <g transform="matrix(0.800688,0.599082,-0.599082,0.800688,532.075,-557.327)">
                        <path d="M1124.43,583.817C1122.18,587.153 1122.95,594.395 1124.85,600.741C1126.76,607.088 1129.38,610.802 1132.82,611.904C1135.02,609.748 1135.22,604.972 1133.31,597.356C1131.41,589.74 1126.68,583.323 1124.43,583.817Z" style="fill:none;stroke:black;stroke-width:1px;"/>
                    </g>
                </g>
                <path d="M1124.43,583.817C1122.18,587.153 1122.95,594.395 1124.85,600.741C1126.76,607.088 1129.38,610.802 1132.82,611.904C1135.02,609.748 1135.22,604.972 1133.31,597.356C1131.41,589.74 1126.68,583.323 1124.43,583.817Z" style="fill:none;stroke:black;stroke-width:1px;"/>
            </g>
            <g transform="matrix(0.114155,0.993463,-0.993463,0.114155,1514.78,-637.339)">
                <path d="M1124.43,583.817C1122.18,587.153 1122.95,594.395 1124.85,600.741C1126.76,607.088 1129.38,610.802 1132.82,611.904C1135.02,609.748 1135.22,604.972 1133.31,597.356C1131.41,589.74 1126.68,583.323 1124.43,583.817Z" style="stroke:black;stroke-width:1px;"/>
            </g>
            <g transform="matrix(-0.551835,0.833953,-0.833953,-0.551835,2163.28,-110.42)">
                <path d="M1124.43,583.817C1122.18,587.153 1122.95,594.395 1124.85,600.741C1126.76,607.088 1129.38,610.802 1132.82,611.904C1135.02,609.748 1135.22,604.972 1133.31,597.356C1131.41,589.74 1126.68,583.323 1124.43,583.817Z" style="stroke:black;stroke-width:1px;"/>
            </g>
            <g transform="matrix(-0.910739,0.412982,-0.412982,-0.910739,2340.63,544.98)">
                <path d="M1124.43,583.817C1122.18,587.153 1122.95,594.395 1124.85,600.741C1126.76,607.088 1129.38,610.802 1132.82,611.904C1135.02,609.748 1135.22,604.972 1133.31,597.356C1131.41,589.74 1126.68,583.323 1124.43,583.817Z" style="stroke:black;stroke-width:1px;"/>
            </g>
        </g>
        <g>
            <path d="M1060.71,392.038C1060.71,392.038 1008.06,414.176 989.631,467.259C979.815,495.527 972.64,529.165 990.301,570.534C1042.53,692.874 1166.58,656.324 1175.08,648.213C1156.57,608.217 1060.71,392.038 1060.71,392.038Z" style="fill:rgb(1,105,90);stroke:black;stroke-opacity:0;stroke-width:1px;"/>
            <path d="M1069.81,412.286L1164.79,625.53C1164.79,625.53 1062.19,666.231 1022.84,583.79C983.495,501.349 1025.17,422.432 1069.81,412.286Z" style="fill:rgb(207,82,158);stroke:black;stroke-opacity:0;stroke-width:1px;"/>
            <path d="M1067.83,409.073C1051.8,412.3 967.889,471.406 1006.83,565.943C1046.83,659.158 1147.44,645.519 1167.27,631.305C1166.12,628.889 1163.64,623.525 1163.64,623.525C1144.25,632.33 1055,649.918 1016.75,563.299C988.648,477.356 1038.56,434.054 1071.95,417.196C1070.55,413.436 1067.83,409.073 1067.83,409.073Z" style="fill:white;stroke:black;stroke-opacity:0;stroke-width:1px;"/>
            <path d="M1124.43,583.817C1122.18,587.153 1122.95,594.395 1124.85,600.741C1126.76,607.088 1129.38,610.802 1132.82,611.904C1135.02,609.748 1135.22,604.972 1133.31,597.356C1131.41,589.74 1126.68,583.323 1124.43,583.817Z" style="stroke:black;stroke-width:1px;"/>
            <g transform="matrix(0.686568,0.727065,-0.727065,0.686568,744.262,-641.55)">
                <path d="M1124.43,583.817C1122.18,587.153 1122.95,594.395 1124.85,600.741C1126.76,607.088 1129.38,610.802 1132.82,611.904C1135.02,609.748 1135.22,604.972 1133.31,597.356C1131.41,589.74 1126.68,583.323 1124.43,583.817Z"/>
                <clipPath id="_clip12">
                    <path d="M1124.43,583.817C1122.18,587.153 1122.95,594.395 1124.85,600.741C1126.76,607.088 1129.38,610.802 1132.82,611.904C1135.02,609.748 1135.22,604.972 1133.31,597.356C1131.41,589.74 1126.68,583.323 1124.43,583.817Z"/>
                </clipPath>
                <g clip-path="url(#_clip12)">
                    <g transform="matrix(0.800688,0.599082,-0.599082,0.800688,532.075,-557.327)">
                        <path d="M1124.43,583.817C1122.18,587.153 1122.95,594.395 1124.85,600.741C1126.76,607.088 1129.38,610.802 1132.82,611.904C1135.02,609.748 1135.22,604.972 1133.31,597.356C1131.41,589.74 1126.68,583.323 1124.43,583.817Z" style="fill:none;stroke:black;stroke-width:1px;"/>
                    </g>
                </g>
                <path d="M1124.43,583.817C1122.18,587.153 1122.95,594.395 1124.85,600.741C1126.76,607.088 1129.38,610.802 1132.82,611.904C1135.02,609.748 1135.22,604.972 1133.31,597.356C1131.41,589.74 1126.68,583.323 1124.43,583.817Z" style="fill:none;stroke:black;stroke-width:1px;"/>
            </g>
            <g transform="matrix(0.114155,0.993463,-0.993463,0.114155,1514.78,-637.339)">
                <path d="M1124.43,583.817C1122.18,587.153 1122.95,594.395 1124.85,600.741C1126.76,607.088 1129.38,610.802 1132.82,611.904C1135.02,609.748 1135.22,604.972 1133.31,597.356C1131.41,589.74 1126.68,583.323 1124.43,583.817Z" style="stroke:black;stroke-width:1px;"/>
            </g>
            <g transform="matrix(-0.551835,0.833953,-0.833953,-0.551835,2163.28,-110.42)">
                <path d="M1124.43,583.817C1122.18,587.153 1122.95,594.395 1124.85,600.741C1126.76,607.088 1129.38,610.802 1132.82,611.904C1135.02,609.748 1135.22,604.972 1133.31,597.356C1131.41,589.74 1126.68,583.323 1124.43,583.817Z" style="stroke:black;stroke-width:1px;"/>
            </g>
            <g transform="matrix(-0.910739,0.412982,-0.412982,-0.910739,2340.63,544.98)">
                <path d="M1124.43,583.817C1122.18,587.153 1122.95,594.395 1124.85,600.741C1126.76,607.088 1129.38,610.802 1132.82,611.904C1135.02,609.748 1135.22,604.972 1133.31,597.356C1131.41,589.74 1126.68,583.323 1124.43,583.817Z" style="stroke:black;stroke-width:1px;"/>
            </g>
        </g>
    </g>
</svg>
